G04 #@! TF.GenerationSoftware,KiCad,Pcbnew,(5.1.10)-1*
G04 #@! TF.CreationDate,2021-08-14T13:08:27-07:00*
G04 #@! TF.ProjectId,be6502x,62653635-3032-4782-9e6b-696361645f70,1*
G04 #@! TF.SameCoordinates,Original*
G04 #@! TF.FileFunction,Legend,Bot*
G04 #@! TF.FilePolarity,Positive*
%FSLAX46Y46*%
G04 Gerber Fmt 4.6, Leading zero omitted, Abs format (unit mm)*
G04 Created by KiCad (PCBNEW (5.1.10)-1) date 2021-08-14 13:08:27*
%MOMM*%
%LPD*%
G01*
G04 APERTURE LIST*
%ADD10C,1.600000*%
%ADD11C,1.700000*%
%ADD12C,2.000000*%
%ADD13O,1.600000X1.600000*%
%ADD14O,1.700000X1.700000*%
%ADD15R,1.700000X1.700000*%
%ADD16R,1.600000X1.600000*%
%ADD17R,1.300000X1.300000*%
%ADD18C,1.300000*%
%ADD19O,1.440000X2.000000*%
%ADD20R,1.440000X2.000000*%
%ADD21R,3.500000X3.500000*%
%ADD22C,1.800000*%
%ADD23R,1.800000X1.800000*%
%ADD24C,1.200000*%
%ADD25R,1.200000X1.200000*%
G04 APERTURE END LIST*
%LPC*%
D10*
X110744000Y-87289000D03*
X110744000Y-89789000D03*
X127762000Y-87035000D03*
X127762000Y-89535000D03*
D11*
X88074500Y-141034000D03*
X85534500Y-141034000D03*
X82994500Y-141034000D03*
X80454500Y-141034000D03*
X77914500Y-141034000D03*
X75374500Y-141034000D03*
X72834500Y-141034000D03*
X88074500Y-143574000D03*
X85534500Y-143574000D03*
X82994500Y-143574000D03*
X80454500Y-143574000D03*
X77914500Y-143574000D03*
X75374500Y-143574000D03*
G36*
G01*
X73434500Y-144424000D02*
X72234500Y-144424000D01*
G75*
G02*
X71984500Y-144174000I0J250000D01*
G01*
X71984500Y-142974000D01*
G75*
G02*
X72234500Y-142724000I250000J0D01*
G01*
X73434500Y-142724000D01*
G75*
G02*
X73684500Y-142974000I0J-250000D01*
G01*
X73684500Y-144174000D01*
G75*
G02*
X73434500Y-144424000I-250000J0D01*
G01*
G37*
X56642000Y-141160000D03*
X54102000Y-141160000D03*
X51562000Y-141160000D03*
X49022000Y-141160000D03*
X46482000Y-141160000D03*
X43942000Y-141160000D03*
X41402000Y-141160000D03*
X56642000Y-143700000D03*
X54102000Y-143700000D03*
X51562000Y-143700000D03*
X49022000Y-143700000D03*
X46482000Y-143700000D03*
X43942000Y-143700000D03*
G36*
G01*
X42002000Y-144550000D02*
X40802000Y-144550000D01*
G75*
G02*
X40552000Y-144300000I0J250000D01*
G01*
X40552000Y-143100000D01*
G75*
G02*
X40802000Y-142850000I250000J0D01*
G01*
X42002000Y-142850000D01*
G75*
G02*
X42252000Y-143100000I0J-250000D01*
G01*
X42252000Y-144300000D01*
G75*
G02*
X42002000Y-144550000I-250000J0D01*
G01*
G37*
D12*
X41803500Y-73383000D03*
X46303500Y-73383000D03*
X41803500Y-79883000D03*
X46303500Y-79883000D03*
D13*
X70223900Y-116459000D03*
D10*
X70223900Y-108839000D03*
D13*
X66682100Y-116459000D03*
D10*
X66682100Y-108839000D03*
D14*
X36322000Y-129731000D03*
X36322000Y-127191000D03*
D15*
X36322000Y-124651000D03*
D14*
X107516000Y-95948500D03*
X104976000Y-95948500D03*
X102436000Y-95948500D03*
X99896000Y-95948500D03*
D15*
X97356000Y-95948500D03*
D14*
X107476000Y-102426000D03*
X104936000Y-102426000D03*
X102396000Y-102426000D03*
D15*
X99856000Y-102426000D03*
D10*
X65532000Y-44640500D03*
X57912000Y-44640500D03*
X57912000Y-59880500D03*
D16*
X65532000Y-59880500D03*
D13*
X52070000Y-69786500D03*
X67310000Y-77406500D03*
X54610000Y-69786500D03*
X64770000Y-77406500D03*
X57150000Y-69786500D03*
X62230000Y-77406500D03*
X59690000Y-69786500D03*
X59690000Y-77406500D03*
X62230000Y-69786500D03*
X57150000Y-77406500D03*
X64770000Y-69786500D03*
X54610000Y-77406500D03*
X67310000Y-69786500D03*
D16*
X52070000Y-77406500D03*
D17*
X65913000Y-65341500D03*
D18*
X63373000Y-65341500D03*
X64643000Y-66611500D03*
D14*
X145381000Y-145542000D03*
X145381000Y-143002000D03*
X145381000Y-140462000D03*
X145381000Y-137922000D03*
X145381000Y-135382000D03*
X145381000Y-132842000D03*
X145381000Y-130302000D03*
X145381000Y-127762000D03*
X145381000Y-125222000D03*
X145381000Y-122682000D03*
X145381000Y-120142000D03*
X145381000Y-117602000D03*
X145381000Y-115062000D03*
X145381000Y-112522000D03*
X145381000Y-109982000D03*
X145381000Y-107442000D03*
X145381000Y-104902000D03*
X145381000Y-102362000D03*
X145381000Y-99822000D03*
X145381000Y-97282000D03*
X145381000Y-94742000D03*
X145381000Y-92202000D03*
X145381000Y-89662000D03*
X145381000Y-87122000D03*
X145381000Y-84582000D03*
X145381000Y-82042000D03*
X145381000Y-79502000D03*
X145381000Y-76962000D03*
X145381000Y-74422000D03*
X145381000Y-71882000D03*
X145381000Y-69342000D03*
X145381000Y-66802000D03*
X145381000Y-64262000D03*
X145381000Y-61722000D03*
X145381000Y-59182000D03*
X145381000Y-56642000D03*
X145381000Y-54102000D03*
X145381000Y-51562000D03*
X145381000Y-49022000D03*
D15*
X145381000Y-46482000D03*
D14*
X130968000Y-145542000D03*
X130968000Y-143002000D03*
X130968000Y-140462000D03*
X130968000Y-137922000D03*
X130968000Y-135382000D03*
X130968000Y-132842000D03*
X130968000Y-130302000D03*
X130968000Y-127762000D03*
X130968000Y-125222000D03*
X130968000Y-122682000D03*
X130968000Y-120142000D03*
X130968000Y-117602000D03*
X130968000Y-115062000D03*
X130968000Y-112522000D03*
X130968000Y-109982000D03*
X130968000Y-107442000D03*
X130968000Y-104902000D03*
X130968000Y-102362000D03*
X130968000Y-99822000D03*
X130968000Y-97282000D03*
X130968000Y-94742000D03*
X130968000Y-92202000D03*
X130968000Y-89662000D03*
X130968000Y-87122000D03*
X130968000Y-84582000D03*
X130968000Y-82042000D03*
X130968000Y-79502000D03*
X130968000Y-76962000D03*
X130968000Y-74422000D03*
X130968000Y-71882000D03*
X130968000Y-69342000D03*
X130968000Y-66802000D03*
X130968000Y-64262000D03*
X130968000Y-61722000D03*
X130968000Y-59182000D03*
X130968000Y-56642000D03*
X130968000Y-54102000D03*
X130968000Y-51562000D03*
X130968000Y-49022000D03*
D15*
X130968000Y-46482000D03*
D13*
X40005000Y-120079000D03*
X88265000Y-135319000D03*
X42545000Y-120079000D03*
X85725000Y-135319000D03*
X45085000Y-120079000D03*
X83185000Y-135319000D03*
X47625000Y-120079000D03*
X80645000Y-135319000D03*
X50165000Y-120079000D03*
X78105000Y-135319000D03*
X52705000Y-120079000D03*
X75565000Y-135319000D03*
X55245000Y-120079000D03*
X73025000Y-135319000D03*
X57785000Y-120079000D03*
X70485000Y-135319000D03*
X60325000Y-120079000D03*
X67945000Y-135319000D03*
X62865000Y-120079000D03*
X65405000Y-135319000D03*
X65405000Y-120079000D03*
X62865000Y-135319000D03*
X67945000Y-120079000D03*
X60325000Y-135319000D03*
X70485000Y-120079000D03*
X57785000Y-135319000D03*
X73025000Y-120079000D03*
X55245000Y-135319000D03*
X75565000Y-120079000D03*
X52705000Y-135319000D03*
X78105000Y-120079000D03*
X50165000Y-135319000D03*
X80645000Y-120079000D03*
X47625000Y-135319000D03*
X83185000Y-120079000D03*
X45085000Y-135319000D03*
X85725000Y-120079000D03*
X42545000Y-135319000D03*
X88265000Y-120079000D03*
D16*
X40005000Y-135319000D03*
D13*
X86423500Y-46609000D03*
X71183500Y-79629000D03*
X86423500Y-49149000D03*
X71183500Y-77089000D03*
X86423500Y-51689000D03*
X71183500Y-74549000D03*
X86423500Y-54229000D03*
X71183500Y-72009000D03*
X86423500Y-56769000D03*
X71183500Y-69469000D03*
X86423500Y-59309000D03*
X71183500Y-66929000D03*
X86423500Y-61849000D03*
X71183500Y-64389000D03*
X86423500Y-64389000D03*
X71183500Y-61849000D03*
X86423500Y-66929000D03*
X71183500Y-59309000D03*
X86423500Y-69469000D03*
X71183500Y-56769000D03*
X86423500Y-72009000D03*
X71183500Y-54229000D03*
X86423500Y-74549000D03*
X71183500Y-51689000D03*
X86423500Y-77089000D03*
X71183500Y-49149000D03*
X86423500Y-79629000D03*
D16*
X71183500Y-46609000D03*
D19*
X81724500Y-86932000D03*
X81724500Y-102172000D03*
X79184500Y-86932000D03*
X79184500Y-102172000D03*
X76644500Y-86932000D03*
X76644500Y-102172000D03*
X74104500Y-86932000D03*
X74104500Y-102172000D03*
X71564500Y-86932000D03*
X71564500Y-102172000D03*
X69024500Y-86932000D03*
X69024500Y-102172000D03*
X66484500Y-86932000D03*
X66484500Y-102172000D03*
X63944500Y-86932000D03*
X63944500Y-102172000D03*
X61404500Y-86932000D03*
X61404500Y-102172000D03*
X58864500Y-86932000D03*
X58864500Y-102172000D03*
X56324500Y-86932000D03*
X56324500Y-102172000D03*
X53784500Y-86932000D03*
X53784500Y-102172000D03*
X51244500Y-86932000D03*
X51244500Y-102172000D03*
X48704500Y-86932000D03*
D20*
X48704500Y-102172000D03*
D13*
X107696000Y-43434000D03*
X92456000Y-91694000D03*
X107696000Y-45974000D03*
X92456000Y-89154000D03*
X107696000Y-48514000D03*
X92456000Y-86614000D03*
X107696000Y-51054000D03*
X92456000Y-84074000D03*
X107696000Y-53594000D03*
X92456000Y-81534000D03*
X107696000Y-56134000D03*
X92456000Y-78994000D03*
X107696000Y-58674000D03*
X92456000Y-76454000D03*
X107696000Y-61214000D03*
X92456000Y-73914000D03*
X107696000Y-63754000D03*
X92456000Y-71374000D03*
X107696000Y-66294000D03*
X92456000Y-68834000D03*
X107696000Y-68834000D03*
X92456000Y-66294000D03*
X107696000Y-71374000D03*
X92456000Y-63754000D03*
X107696000Y-73914000D03*
X92456000Y-61214000D03*
X107696000Y-76454000D03*
X92456000Y-58674000D03*
X107696000Y-78994000D03*
X92456000Y-56134000D03*
X107696000Y-81534000D03*
X92456000Y-53594000D03*
X107696000Y-84074000D03*
X92456000Y-51054000D03*
X107696000Y-86614000D03*
X92456000Y-48514000D03*
X107696000Y-89154000D03*
X92456000Y-45974000D03*
X107696000Y-91694000D03*
D16*
X92456000Y-43434000D03*
D13*
X80849600Y-108839000D03*
D10*
X80849600Y-116459000D03*
D13*
X84391500Y-108839000D03*
D10*
X84391500Y-116459000D03*
D13*
X63140200Y-108839000D03*
D10*
X63140200Y-116459000D03*
D13*
X56056400Y-108839000D03*
D10*
X56056400Y-116459000D03*
D13*
X52514500Y-108839000D03*
D10*
X52514500Y-116459000D03*
D13*
X59598300Y-108839000D03*
D10*
X59598300Y-116459000D03*
D13*
X73765800Y-108839000D03*
D10*
X73765800Y-116459000D03*
D13*
X77307700Y-108839000D03*
D10*
X77307700Y-116459000D03*
D14*
X114236000Y-145542000D03*
X114236000Y-143002000D03*
X114236000Y-140462000D03*
X114236000Y-137922000D03*
X114236000Y-135382000D03*
X114236000Y-132842000D03*
X114236000Y-130302000D03*
X114236000Y-127762000D03*
X114236000Y-125222000D03*
X114236000Y-122682000D03*
X114236000Y-120142000D03*
X114236000Y-117602000D03*
X114236000Y-115062000D03*
X114236000Y-112522000D03*
X114236000Y-109982000D03*
X114236000Y-107442000D03*
X114236000Y-104902000D03*
X114236000Y-102362000D03*
X114236000Y-99822000D03*
X114236000Y-97282000D03*
X114236000Y-94742000D03*
X114236000Y-92202000D03*
X114236000Y-89662000D03*
X114236000Y-87122000D03*
X114236000Y-84582000D03*
X114236000Y-82042000D03*
X114236000Y-79502000D03*
X114236000Y-76962000D03*
X114236000Y-74422000D03*
X114236000Y-71882000D03*
X114236000Y-69342000D03*
X114236000Y-66802000D03*
X114236000Y-64262000D03*
X114236000Y-61722000D03*
X114236000Y-59182000D03*
X114236000Y-56642000D03*
X114236000Y-54102000D03*
X114236000Y-51562000D03*
X114236000Y-49022000D03*
D15*
X114236000Y-46482000D03*
G36*
G01*
X41478500Y-46431000D02*
X43228500Y-46431000D01*
G75*
G02*
X44103500Y-47306000I0J-875000D01*
G01*
X44103500Y-49056000D01*
G75*
G02*
X43228500Y-49931000I-875000J0D01*
G01*
X41478500Y-49931000D01*
G75*
G02*
X40603500Y-49056000I0J875000D01*
G01*
X40603500Y-47306000D01*
G75*
G02*
X41478500Y-46431000I875000J0D01*
G01*
G37*
G36*
G01*
X46053500Y-43681000D02*
X48053500Y-43681000D01*
G75*
G02*
X48803500Y-44431000I0J-750000D01*
G01*
X48803500Y-45931000D01*
G75*
G02*
X48053500Y-46681000I-750000J0D01*
G01*
X46053500Y-46681000D01*
G75*
G02*
X45303500Y-45931000I0J750000D01*
G01*
X45303500Y-44431000D01*
G75*
G02*
X46053500Y-43681000I750000J0D01*
G01*
G37*
D21*
X47053500Y-51181000D03*
D22*
X43053500Y-66992500D03*
D23*
X43053500Y-69532500D03*
D22*
X106236000Y-141351000D03*
D23*
X106236000Y-143891000D03*
D22*
X98044000Y-141351000D03*
D23*
X98044000Y-143891000D03*
D22*
X43053500Y-54991000D03*
D23*
X43053500Y-57531000D03*
D10*
X91694000Y-132819000D03*
X91694000Y-135319000D03*
X64770000Y-141034000D03*
X64770000Y-143534000D03*
X59078500Y-64262000D03*
X56578500Y-64262000D03*
X117666000Y-87035000D03*
X117666000Y-89535000D03*
X142240000Y-87035000D03*
X142240000Y-89535000D03*
X84050500Y-42926000D03*
X86550500Y-42926000D03*
X89471500Y-58714000D03*
X89471500Y-61214000D03*
X54292500Y-66802000D03*
X51792500Y-66802000D03*
D24*
X49911000Y-55340500D03*
D25*
X49911000Y-57340500D03*
M02*
