G04 #@! TF.GenerationSoftware,KiCad,Pcbnew,(5.1.10)-1*
G04 #@! TF.CreationDate,2021-08-14T13:08:27-07:00*
G04 #@! TF.ProjectId,be6502x,62653635-3032-4782-9e6b-696361645f70,1*
G04 #@! TF.SameCoordinates,Original*
G04 #@! TF.FileFunction,Copper,L1,Top*
G04 #@! TF.FilePolarity,Positive*
%FSLAX46Y46*%
G04 Gerber Fmt 4.6, Leading zero omitted, Abs format (unit mm)*
G04 Created by KiCad (PCBNEW (5.1.10)-1) date 2021-08-14 13:08:27*
%MOMM*%
%LPD*%
G01*
G04 APERTURE LIST*
G04 #@! TA.AperFunction,EtchedComponent*
%ADD10C,0.152400*%
G04 #@! TD*
G04 #@! TA.AperFunction,ComponentPad*
%ADD11C,1.600000*%
G04 #@! TD*
G04 #@! TA.AperFunction,ComponentPad*
%ADD12C,1.700000*%
G04 #@! TD*
G04 #@! TA.AperFunction,ComponentPad*
%ADD13C,2.000000*%
G04 #@! TD*
G04 #@! TA.AperFunction,ComponentPad*
%ADD14O,1.600000X1.600000*%
G04 #@! TD*
G04 #@! TA.AperFunction,ComponentPad*
%ADD15O,1.700000X1.700000*%
G04 #@! TD*
G04 #@! TA.AperFunction,ComponentPad*
%ADD16R,1.700000X1.700000*%
G04 #@! TD*
G04 #@! TA.AperFunction,SMDPad,CuDef*
%ADD17R,1.000000X1.500000*%
G04 #@! TD*
G04 #@! TA.AperFunction,ComponentPad*
%ADD18R,1.600000X1.600000*%
G04 #@! TD*
G04 #@! TA.AperFunction,ComponentPad*
%ADD19R,1.300000X1.300000*%
G04 #@! TD*
G04 #@! TA.AperFunction,ComponentPad*
%ADD20C,1.300000*%
G04 #@! TD*
G04 #@! TA.AperFunction,ComponentPad*
%ADD21O,1.440000X2.000000*%
G04 #@! TD*
G04 #@! TA.AperFunction,ComponentPad*
%ADD22R,1.440000X2.000000*%
G04 #@! TD*
G04 #@! TA.AperFunction,ComponentPad*
%ADD23R,3.500000X3.500000*%
G04 #@! TD*
G04 #@! TA.AperFunction,ComponentPad*
%ADD24C,1.800000*%
G04 #@! TD*
G04 #@! TA.AperFunction,ComponentPad*
%ADD25R,1.800000X1.800000*%
G04 #@! TD*
G04 #@! TA.AperFunction,ComponentPad*
%ADD26C,1.200000*%
G04 #@! TD*
G04 #@! TA.AperFunction,ComponentPad*
%ADD27R,1.200000X1.200000*%
G04 #@! TD*
G04 #@! TA.AperFunction,ViaPad*
%ADD28C,0.600000*%
G04 #@! TD*
G04 #@! TA.AperFunction,Conductor*
%ADD29C,0.350000*%
G04 #@! TD*
G04 #@! TA.AperFunction,Conductor*
%ADD30C,0.127000*%
G04 #@! TD*
G04 APERTURE END LIST*
D10*
G36*
X110804000Y-135872000D02*
G01*
X110304000Y-135872000D01*
X110304000Y-135272000D01*
X110804000Y-135272000D01*
X110804000Y-135872000D01*
G37*
G36*
X110804000Y-133269000D02*
G01*
X110304000Y-133269000D01*
X110304000Y-132669000D01*
X110804000Y-132669000D01*
X110804000Y-133269000D01*
G37*
D11*
X110744000Y-87289000D03*
X110744000Y-89789000D03*
X127762000Y-87035000D03*
X127762000Y-89535000D03*
D12*
X88074500Y-141034000D03*
X85534500Y-141034000D03*
X82994500Y-141034000D03*
X80454500Y-141034000D03*
X77914500Y-141034000D03*
X75374500Y-141034000D03*
X72834500Y-141034000D03*
X88074500Y-143574000D03*
X85534500Y-143574000D03*
X82994500Y-143574000D03*
X80454500Y-143574000D03*
X77914500Y-143574000D03*
X75374500Y-143574000D03*
G04 #@! TA.AperFunction,ComponentPad*
G36*
G01*
X73434500Y-144424000D02*
X72234500Y-144424000D01*
G75*
G02*
X71984500Y-144174000I0J250000D01*
G01*
X71984500Y-142974000D01*
G75*
G02*
X72234500Y-142724000I250000J0D01*
G01*
X73434500Y-142724000D01*
G75*
G02*
X73684500Y-142974000I0J-250000D01*
G01*
X73684500Y-144174000D01*
G75*
G02*
X73434500Y-144424000I-250000J0D01*
G01*
G37*
G04 #@! TD.AperFunction*
X56642000Y-141160000D03*
X54102000Y-141160000D03*
X51562000Y-141160000D03*
X49022000Y-141160000D03*
X46482000Y-141160000D03*
X43942000Y-141160000D03*
X41402000Y-141160000D03*
X56642000Y-143700000D03*
X54102000Y-143700000D03*
X51562000Y-143700000D03*
X49022000Y-143700000D03*
X46482000Y-143700000D03*
X43942000Y-143700000D03*
G04 #@! TA.AperFunction,ComponentPad*
G36*
G01*
X42002000Y-144550000D02*
X40802000Y-144550000D01*
G75*
G02*
X40552000Y-144300000I0J250000D01*
G01*
X40552000Y-143100000D01*
G75*
G02*
X40802000Y-142850000I250000J0D01*
G01*
X42002000Y-142850000D01*
G75*
G02*
X42252000Y-143100000I0J-250000D01*
G01*
X42252000Y-144300000D01*
G75*
G02*
X42002000Y-144550000I-250000J0D01*
G01*
G37*
G04 #@! TD.AperFunction*
D13*
X41803500Y-73383000D03*
X46303500Y-73383000D03*
X41803500Y-79883000D03*
X46303500Y-79883000D03*
D14*
X70223900Y-116459000D03*
D11*
X70223900Y-108839000D03*
D14*
X66682100Y-116459000D03*
D11*
X66682100Y-108839000D03*
D15*
X36322000Y-129731000D03*
X36322000Y-127191000D03*
D16*
X36322000Y-124651000D03*
D17*
X109904000Y-135572000D03*
X111204000Y-135572000D03*
X109904000Y-132969000D03*
X111204000Y-132969000D03*
D15*
X107516000Y-95948500D03*
X104976000Y-95948500D03*
X102436000Y-95948500D03*
X99896000Y-95948500D03*
D16*
X97356000Y-95948500D03*
D15*
X107476000Y-102426000D03*
X104936000Y-102426000D03*
X102396000Y-102426000D03*
D16*
X99856000Y-102426000D03*
D11*
X65532000Y-44640500D03*
X57912000Y-44640500D03*
X57912000Y-59880500D03*
D18*
X65532000Y-59880500D03*
D14*
X52070000Y-69786500D03*
X67310000Y-77406500D03*
X54610000Y-69786500D03*
X64770000Y-77406500D03*
X57150000Y-69786500D03*
X62230000Y-77406500D03*
X59690000Y-69786500D03*
X59690000Y-77406500D03*
X62230000Y-69786500D03*
X57150000Y-77406500D03*
X64770000Y-69786500D03*
X54610000Y-77406500D03*
X67310000Y-69786500D03*
D18*
X52070000Y-77406500D03*
D19*
X65913000Y-65341500D03*
D20*
X63373000Y-65341500D03*
X64643000Y-66611500D03*
D15*
X145381000Y-145542000D03*
X145381000Y-143002000D03*
X145381000Y-140462000D03*
X145381000Y-137922000D03*
X145381000Y-135382000D03*
X145381000Y-132842000D03*
X145381000Y-130302000D03*
X145381000Y-127762000D03*
X145381000Y-125222000D03*
X145381000Y-122682000D03*
X145381000Y-120142000D03*
X145381000Y-117602000D03*
X145381000Y-115062000D03*
X145381000Y-112522000D03*
X145381000Y-109982000D03*
X145381000Y-107442000D03*
X145381000Y-104902000D03*
X145381000Y-102362000D03*
X145381000Y-99822000D03*
X145381000Y-97282000D03*
X145381000Y-94742000D03*
X145381000Y-92202000D03*
X145381000Y-89662000D03*
X145381000Y-87122000D03*
X145381000Y-84582000D03*
X145381000Y-82042000D03*
X145381000Y-79502000D03*
X145381000Y-76962000D03*
X145381000Y-74422000D03*
X145381000Y-71882000D03*
X145381000Y-69342000D03*
X145381000Y-66802000D03*
X145381000Y-64262000D03*
X145381000Y-61722000D03*
X145381000Y-59182000D03*
X145381000Y-56642000D03*
X145381000Y-54102000D03*
X145381000Y-51562000D03*
X145381000Y-49022000D03*
D16*
X145381000Y-46482000D03*
D15*
X130968000Y-145542000D03*
X130968000Y-143002000D03*
X130968000Y-140462000D03*
X130968000Y-137922000D03*
X130968000Y-135382000D03*
X130968000Y-132842000D03*
X130968000Y-130302000D03*
X130968000Y-127762000D03*
X130968000Y-125222000D03*
X130968000Y-122682000D03*
X130968000Y-120142000D03*
X130968000Y-117602000D03*
X130968000Y-115062000D03*
X130968000Y-112522000D03*
X130968000Y-109982000D03*
X130968000Y-107442000D03*
X130968000Y-104902000D03*
X130968000Y-102362000D03*
X130968000Y-99822000D03*
X130968000Y-97282000D03*
X130968000Y-94742000D03*
X130968000Y-92202000D03*
X130968000Y-89662000D03*
X130968000Y-87122000D03*
X130968000Y-84582000D03*
X130968000Y-82042000D03*
X130968000Y-79502000D03*
X130968000Y-76962000D03*
X130968000Y-74422000D03*
X130968000Y-71882000D03*
X130968000Y-69342000D03*
X130968000Y-66802000D03*
X130968000Y-64262000D03*
X130968000Y-61722000D03*
X130968000Y-59182000D03*
X130968000Y-56642000D03*
X130968000Y-54102000D03*
X130968000Y-51562000D03*
X130968000Y-49022000D03*
D16*
X130968000Y-46482000D03*
D14*
X40005000Y-120079000D03*
X88265000Y-135319000D03*
X42545000Y-120079000D03*
X85725000Y-135319000D03*
X45085000Y-120079000D03*
X83185000Y-135319000D03*
X47625000Y-120079000D03*
X80645000Y-135319000D03*
X50165000Y-120079000D03*
X78105000Y-135319000D03*
X52705000Y-120079000D03*
X75565000Y-135319000D03*
X55245000Y-120079000D03*
X73025000Y-135319000D03*
X57785000Y-120079000D03*
X70485000Y-135319000D03*
X60325000Y-120079000D03*
X67945000Y-135319000D03*
X62865000Y-120079000D03*
X65405000Y-135319000D03*
X65405000Y-120079000D03*
X62865000Y-135319000D03*
X67945000Y-120079000D03*
X60325000Y-135319000D03*
X70485000Y-120079000D03*
X57785000Y-135319000D03*
X73025000Y-120079000D03*
X55245000Y-135319000D03*
X75565000Y-120079000D03*
X52705000Y-135319000D03*
X78105000Y-120079000D03*
X50165000Y-135319000D03*
X80645000Y-120079000D03*
X47625000Y-135319000D03*
X83185000Y-120079000D03*
X45085000Y-135319000D03*
X85725000Y-120079000D03*
X42545000Y-135319000D03*
X88265000Y-120079000D03*
D18*
X40005000Y-135319000D03*
D14*
X86423500Y-46609000D03*
X71183500Y-79629000D03*
X86423500Y-49149000D03*
X71183500Y-77089000D03*
X86423500Y-51689000D03*
X71183500Y-74549000D03*
X86423500Y-54229000D03*
X71183500Y-72009000D03*
X86423500Y-56769000D03*
X71183500Y-69469000D03*
X86423500Y-59309000D03*
X71183500Y-66929000D03*
X86423500Y-61849000D03*
X71183500Y-64389000D03*
X86423500Y-64389000D03*
X71183500Y-61849000D03*
X86423500Y-66929000D03*
X71183500Y-59309000D03*
X86423500Y-69469000D03*
X71183500Y-56769000D03*
X86423500Y-72009000D03*
X71183500Y-54229000D03*
X86423500Y-74549000D03*
X71183500Y-51689000D03*
X86423500Y-77089000D03*
X71183500Y-49149000D03*
X86423500Y-79629000D03*
D18*
X71183500Y-46609000D03*
D21*
X81724500Y-86932000D03*
X81724500Y-102172000D03*
X79184500Y-86932000D03*
X79184500Y-102172000D03*
X76644500Y-86932000D03*
X76644500Y-102172000D03*
X74104500Y-86932000D03*
X74104500Y-102172000D03*
X71564500Y-86932000D03*
X71564500Y-102172000D03*
X69024500Y-86932000D03*
X69024500Y-102172000D03*
X66484500Y-86932000D03*
X66484500Y-102172000D03*
X63944500Y-86932000D03*
X63944500Y-102172000D03*
X61404500Y-86932000D03*
X61404500Y-102172000D03*
X58864500Y-86932000D03*
X58864500Y-102172000D03*
X56324500Y-86932000D03*
X56324500Y-102172000D03*
X53784500Y-86932000D03*
X53784500Y-102172000D03*
X51244500Y-86932000D03*
X51244500Y-102172000D03*
X48704500Y-86932000D03*
D22*
X48704500Y-102172000D03*
D14*
X107696000Y-43434000D03*
X92456000Y-91694000D03*
X107696000Y-45974000D03*
X92456000Y-89154000D03*
X107696000Y-48514000D03*
X92456000Y-86614000D03*
X107696000Y-51054000D03*
X92456000Y-84074000D03*
X107696000Y-53594000D03*
X92456000Y-81534000D03*
X107696000Y-56134000D03*
X92456000Y-78994000D03*
X107696000Y-58674000D03*
X92456000Y-76454000D03*
X107696000Y-61214000D03*
X92456000Y-73914000D03*
X107696000Y-63754000D03*
X92456000Y-71374000D03*
X107696000Y-66294000D03*
X92456000Y-68834000D03*
X107696000Y-68834000D03*
X92456000Y-66294000D03*
X107696000Y-71374000D03*
X92456000Y-63754000D03*
X107696000Y-73914000D03*
X92456000Y-61214000D03*
X107696000Y-76454000D03*
X92456000Y-58674000D03*
X107696000Y-78994000D03*
X92456000Y-56134000D03*
X107696000Y-81534000D03*
X92456000Y-53594000D03*
X107696000Y-84074000D03*
X92456000Y-51054000D03*
X107696000Y-86614000D03*
X92456000Y-48514000D03*
X107696000Y-89154000D03*
X92456000Y-45974000D03*
X107696000Y-91694000D03*
D18*
X92456000Y-43434000D03*
D14*
X80849600Y-108839000D03*
D11*
X80849600Y-116459000D03*
D14*
X84391500Y-108839000D03*
D11*
X84391500Y-116459000D03*
D14*
X63140200Y-108839000D03*
D11*
X63140200Y-116459000D03*
D14*
X56056400Y-108839000D03*
D11*
X56056400Y-116459000D03*
D14*
X52514500Y-108839000D03*
D11*
X52514500Y-116459000D03*
D14*
X59598300Y-108839000D03*
D11*
X59598300Y-116459000D03*
D14*
X73765800Y-108839000D03*
D11*
X73765800Y-116459000D03*
D14*
X77307700Y-108839000D03*
D11*
X77307700Y-116459000D03*
D15*
X114236000Y-145542000D03*
X114236000Y-143002000D03*
X114236000Y-140462000D03*
X114236000Y-137922000D03*
X114236000Y-135382000D03*
X114236000Y-132842000D03*
X114236000Y-130302000D03*
X114236000Y-127762000D03*
X114236000Y-125222000D03*
X114236000Y-122682000D03*
X114236000Y-120142000D03*
X114236000Y-117602000D03*
X114236000Y-115062000D03*
X114236000Y-112522000D03*
X114236000Y-109982000D03*
X114236000Y-107442000D03*
X114236000Y-104902000D03*
X114236000Y-102362000D03*
X114236000Y-99822000D03*
X114236000Y-97282000D03*
X114236000Y-94742000D03*
X114236000Y-92202000D03*
X114236000Y-89662000D03*
X114236000Y-87122000D03*
X114236000Y-84582000D03*
X114236000Y-82042000D03*
X114236000Y-79502000D03*
X114236000Y-76962000D03*
X114236000Y-74422000D03*
X114236000Y-71882000D03*
X114236000Y-69342000D03*
X114236000Y-66802000D03*
X114236000Y-64262000D03*
X114236000Y-61722000D03*
X114236000Y-59182000D03*
X114236000Y-56642000D03*
X114236000Y-54102000D03*
X114236000Y-51562000D03*
X114236000Y-49022000D03*
D16*
X114236000Y-46482000D03*
G04 #@! TA.AperFunction,ComponentPad*
G36*
G01*
X41478500Y-46431000D02*
X43228500Y-46431000D01*
G75*
G02*
X44103500Y-47306000I0J-875000D01*
G01*
X44103500Y-49056000D01*
G75*
G02*
X43228500Y-49931000I-875000J0D01*
G01*
X41478500Y-49931000D01*
G75*
G02*
X40603500Y-49056000I0J875000D01*
G01*
X40603500Y-47306000D01*
G75*
G02*
X41478500Y-46431000I875000J0D01*
G01*
G37*
G04 #@! TD.AperFunction*
G04 #@! TA.AperFunction,ComponentPad*
G36*
G01*
X46053500Y-43681000D02*
X48053500Y-43681000D01*
G75*
G02*
X48803500Y-44431000I0J-750000D01*
G01*
X48803500Y-45931000D01*
G75*
G02*
X48053500Y-46681000I-750000J0D01*
G01*
X46053500Y-46681000D01*
G75*
G02*
X45303500Y-45931000I0J750000D01*
G01*
X45303500Y-44431000D01*
G75*
G02*
X46053500Y-43681000I750000J0D01*
G01*
G37*
G04 #@! TD.AperFunction*
D23*
X47053500Y-51181000D03*
D24*
X43053500Y-66992500D03*
D25*
X43053500Y-69532500D03*
D24*
X106236000Y-141351000D03*
D25*
X106236000Y-143891000D03*
D24*
X98044000Y-141351000D03*
D25*
X98044000Y-143891000D03*
D24*
X43053500Y-54991000D03*
D25*
X43053500Y-57531000D03*
D11*
X91694000Y-132819000D03*
X91694000Y-135319000D03*
X64770000Y-141034000D03*
X64770000Y-143534000D03*
X59078500Y-64262000D03*
X56578500Y-64262000D03*
X117666000Y-87035000D03*
X117666000Y-89535000D03*
X142240000Y-87035000D03*
X142240000Y-89535000D03*
X84050500Y-42926000D03*
X86550500Y-42926000D03*
X89471500Y-58714000D03*
X89471500Y-61214000D03*
X54292500Y-66802000D03*
X51792500Y-66802000D03*
D26*
X49911000Y-55340500D03*
D27*
X49911000Y-57340500D03*
D28*
X68516900Y-90771300D03*
X57379400Y-115157100D03*
X108661100Y-96857600D03*
X87501900Y-113905600D03*
X79568400Y-70487100D03*
X92885600Y-108543600D03*
X97024400Y-98043100D03*
X104117000Y-89639000D03*
X81697500Y-106046800D03*
X101085600Y-107997600D03*
X80503500Y-78555400D03*
X93898000Y-118822900D03*
X92773000Y-118449000D03*
X106496800Y-79618800D03*
X91672000Y-118105700D03*
X105727400Y-91802400D03*
X89488500Y-115337900D03*
X107921000Y-99822000D03*
X80628700Y-85222300D03*
X88110100Y-65134800D03*
X110606700Y-59046800D03*
X62775200Y-82154700D03*
X97388700Y-75472200D03*
X73580600Y-82154700D03*
X96622500Y-75963100D03*
X70631800Y-92316800D03*
X73076500Y-80620200D03*
X88298400Y-60478200D03*
X68425000Y-76382900D03*
X88743200Y-63228900D03*
X110325900Y-72400500D03*
X98174700Y-78202900D03*
X98531300Y-80295900D03*
X98525000Y-89344000D03*
X82040900Y-127160100D03*
D29*
X82746800Y-102172000D02*
X91202400Y-93716400D01*
X91202400Y-93716400D02*
X104681900Y-93716400D01*
X104681900Y-93716400D02*
X106593700Y-91804600D01*
X106593700Y-91804600D02*
X106593700Y-91694000D01*
X114236000Y-87122000D02*
X113083700Y-87122000D01*
X110744000Y-87289000D02*
X112916700Y-87289000D01*
X112916700Y-87289000D02*
X113083700Y-87122000D01*
X41402000Y-141160000D02*
X40005000Y-139763000D01*
X40005000Y-139763000D02*
X40005000Y-135319000D01*
X130968000Y-87122000D02*
X129815700Y-87122000D01*
X127762000Y-87035000D02*
X129728700Y-87035000D01*
X129728700Y-87035000D02*
X129815700Y-87122000D01*
X117666000Y-87035000D02*
X127762000Y-87035000D01*
X81724500Y-102172000D02*
X80702200Y-102172000D01*
X59598300Y-108839000D02*
X60700600Y-108839000D01*
X60700600Y-108839000D02*
X64722100Y-104817500D01*
X64722100Y-104817500D02*
X78320500Y-104817500D01*
X78320500Y-104817500D02*
X80702200Y-102435800D01*
X80702200Y-102435800D02*
X80702200Y-102172000D01*
X59078500Y-64262000D02*
X62293500Y-64262000D01*
X62293500Y-64262000D02*
X63373000Y-65341500D01*
X54610000Y-69786500D02*
X53507700Y-69786500D01*
X53507700Y-69786500D02*
X53507700Y-69924300D01*
X53507700Y-69924300D02*
X50049000Y-73383000D01*
X50049000Y-73383000D02*
X46303500Y-73383000D01*
X70081200Y-79629000D02*
X70081200Y-79075400D01*
X70081200Y-79075400D02*
X68412300Y-77406500D01*
X117666000Y-87035000D02*
X115475300Y-87035000D01*
X115475300Y-87035000D02*
X115388300Y-87122000D01*
X107696000Y-91694000D02*
X106593700Y-91694000D01*
X81724500Y-102172000D02*
X82746800Y-102172000D01*
X114236000Y-87122000D02*
X115388300Y-87122000D01*
X142240000Y-87078500D02*
X132163800Y-87078500D01*
X132163800Y-87078500D02*
X132120300Y-87122000D01*
X145381000Y-87122000D02*
X142283500Y-87122000D01*
X142283500Y-87122000D02*
X142240000Y-87078500D01*
X142240000Y-87078500D02*
X142240000Y-87035000D01*
X130968000Y-87122000D02*
X132120300Y-87122000D01*
X84050500Y-42926000D02*
X82336000Y-44640500D01*
X82336000Y-44640500D02*
X65532000Y-44640500D01*
X72834500Y-141034000D02*
X64770000Y-141034000D01*
X52514500Y-108839000D02*
X56056400Y-108839000D01*
X130968000Y-145542000D02*
X114236000Y-145542000D01*
X130968000Y-145542000D02*
X145381000Y-145542000D01*
X71183500Y-79629000D02*
X70081200Y-79629000D01*
X67310000Y-77406500D02*
X68412300Y-77406500D01*
X56642000Y-141160000D02*
X55460500Y-139978500D01*
X55460500Y-139978500D02*
X53651600Y-139978500D01*
X53651600Y-139978500D02*
X52714400Y-140915700D01*
X52714400Y-140915700D02*
X52714400Y-141672900D01*
X52714400Y-141672900D02*
X51957300Y-142430000D01*
X51957300Y-142430000D02*
X42672000Y-142430000D01*
X42672000Y-142430000D02*
X41402000Y-143700000D01*
X64770000Y-143534000D02*
X62396000Y-141160000D01*
X62396000Y-141160000D02*
X56642000Y-141160000D01*
X51244500Y-86932000D02*
X55083800Y-90771300D01*
X55083800Y-90771300D02*
X68516900Y-90771300D01*
X48704500Y-86932000D02*
X51244500Y-86932000D01*
X88074500Y-141034000D02*
X86804500Y-142304000D01*
X86804500Y-142304000D02*
X74104500Y-142304000D01*
X74104500Y-142304000D02*
X72834500Y-143574000D01*
X130968000Y-89662000D02*
X129815700Y-89662000D01*
X127762000Y-89535000D02*
X129688700Y-89535000D01*
X129688700Y-89535000D02*
X129815700Y-89662000D01*
X117666000Y-89535000D02*
X127762000Y-89535000D01*
X49911000Y-57340500D02*
X49911000Y-58242800D01*
X54122100Y-64262000D02*
X54122100Y-64472400D01*
X54122100Y-64472400D02*
X51792500Y-66802000D01*
X49911000Y-58242800D02*
X54122100Y-62453900D01*
X54122100Y-62453900D02*
X54122100Y-64262000D01*
X54122100Y-64262000D02*
X56578500Y-64262000D01*
X49459900Y-57340500D02*
X49911000Y-57340500D01*
X114236000Y-89662000D02*
X115388300Y-89662000D01*
X117666000Y-89535000D02*
X115515300Y-89535000D01*
X115515300Y-89535000D02*
X115388300Y-89662000D01*
X64643000Y-64853100D02*
X64643000Y-66611500D01*
X89471500Y-61214000D02*
X87870000Y-61214000D01*
X87870000Y-61214000D02*
X87402600Y-60746600D01*
X87402600Y-60746600D02*
X68749500Y-60746600D01*
X68749500Y-60746600D02*
X64643000Y-64853100D01*
X59436000Y-61404500D02*
X61194400Y-61404500D01*
X61194400Y-61404500D02*
X64643000Y-64853100D01*
X59436000Y-61404500D02*
X56578500Y-64262000D01*
X57912000Y-59880500D02*
X59436000Y-61404500D01*
X107696000Y-48514000D02*
X106593700Y-48514000D01*
X86550500Y-42926000D02*
X90700900Y-47076400D01*
X90700900Y-47076400D02*
X105156100Y-47076400D01*
X105156100Y-47076400D02*
X106593700Y-48514000D01*
X43053500Y-66992500D02*
X51602000Y-66992500D01*
X51602000Y-66992500D02*
X51792500Y-66802000D01*
X110744000Y-89789000D02*
X112956700Y-89789000D01*
X112956700Y-89789000D02*
X113083700Y-89662000D01*
X114236000Y-89662000D02*
X113083700Y-89662000D01*
X72834500Y-143574000D02*
X64810000Y-143574000D01*
X64810000Y-143574000D02*
X64770000Y-143534000D01*
X142240000Y-89598500D02*
X132183800Y-89598500D01*
X132183800Y-89598500D02*
X132120300Y-89662000D01*
X145381000Y-89662000D02*
X142303500Y-89662000D01*
X142303500Y-89662000D02*
X142240000Y-89598500D01*
X142240000Y-89598500D02*
X142240000Y-89535000D01*
X130968000Y-89662000D02*
X132120300Y-89662000D01*
X66682100Y-108839000D02*
X70223900Y-108839000D01*
X80849600Y-108839000D02*
X79747300Y-108839000D01*
X79747300Y-108839000D02*
X78639300Y-109947000D01*
X78639300Y-109947000D02*
X71331900Y-109947000D01*
X71331900Y-109947000D02*
X70223900Y-108839000D01*
X84391500Y-108839000D02*
X80849600Y-108839000D01*
X77307700Y-116459000D02*
X73765800Y-116459000D01*
X88265000Y-135319000D02*
X91694000Y-135319000D01*
X49459900Y-57340500D02*
X49008700Y-57340500D01*
X47053500Y-54991000D02*
X43053500Y-54991000D01*
X49008700Y-57340500D02*
X47053500Y-55385300D01*
X47053500Y-55385300D02*
X47053500Y-54991000D01*
X47053500Y-54991000D02*
X47053500Y-53233300D01*
X47053500Y-51181000D02*
X47053500Y-53233300D01*
D30*
X57379400Y-115157100D02*
X58296400Y-115157100D01*
X58296400Y-115157100D02*
X59598300Y-116459000D01*
X52514500Y-116459000D02*
X54071500Y-118016000D01*
X54071500Y-118016000D02*
X57133900Y-118016000D01*
X57133900Y-118016000D02*
X58800700Y-119682800D01*
X58800700Y-119682800D02*
X58800700Y-120325400D01*
X58800700Y-120325400D02*
X64791900Y-126316600D01*
X64791900Y-126316600D02*
X82102600Y-126316600D01*
X82102600Y-126316600D02*
X89916000Y-134130000D01*
X89916000Y-134130000D02*
X92392800Y-134130000D01*
X92392800Y-134130000D02*
X99184500Y-140921700D01*
X99184500Y-140921700D02*
X99184500Y-141796000D01*
X99184500Y-141796000D02*
X98180300Y-142800200D01*
X98180300Y-142800200D02*
X98044000Y-142800200D01*
X98044000Y-143891000D02*
X98044000Y-142800200D01*
X106236000Y-143891000D02*
X105145200Y-143891000D01*
X105145200Y-143891000D02*
X87316400Y-126062200D01*
X87316400Y-126062200D02*
X64897200Y-126062200D01*
X64897200Y-126062200D02*
X59240200Y-120405200D01*
X59240200Y-120405200D02*
X59240200Y-119642800D01*
X59240200Y-119642800D02*
X56056400Y-116459000D01*
X63140200Y-108839000D02*
X64131000Y-108839000D01*
X114236000Y-94742000D02*
X113195200Y-94742000D01*
X113195200Y-94742000D02*
X92697700Y-94742000D01*
X92697700Y-94742000D02*
X81987800Y-105451900D01*
X81987800Y-105451900D02*
X67518100Y-105451900D01*
X67518100Y-105451900D02*
X64131000Y-108839000D01*
X65913000Y-65341500D02*
X65913000Y-66555600D01*
X65913000Y-66555600D02*
X64035700Y-68432900D01*
X64035700Y-68432900D02*
X46753600Y-68432900D01*
X46753600Y-68432900D02*
X41803500Y-73383000D01*
X130968000Y-94742000D02*
X145381000Y-94742000D01*
X130968000Y-143002000D02*
X145381000Y-143002000D01*
X130968000Y-140462000D02*
X145381000Y-140462000D01*
X114236000Y-140462000D02*
X130968000Y-140462000D01*
X97356000Y-95948500D02*
X98396800Y-95948500D01*
X108661100Y-96857600D02*
X108529400Y-96989300D01*
X108529400Y-96989300D02*
X99437600Y-96989300D01*
X99437600Y-96989300D02*
X98396800Y-95948500D01*
X130968000Y-109982000D02*
X145381000Y-109982000D01*
X114236000Y-109982000D02*
X130968000Y-109982000D01*
X111204000Y-135572000D02*
X111894800Y-135572000D01*
X114236000Y-135382000D02*
X112084800Y-135382000D01*
X112084800Y-135382000D02*
X111894800Y-135572000D01*
X145381000Y-135382000D02*
X130968000Y-135382000D01*
X111204000Y-132969000D02*
X111894800Y-132969000D01*
X114236000Y-132842000D02*
X112021800Y-132842000D01*
X112021800Y-132842000D02*
X111894800Y-132969000D01*
X130968000Y-132842000D02*
X114236000Y-132842000D01*
X145381000Y-132842000D02*
X130968000Y-132842000D01*
X87501900Y-113905600D02*
X87523600Y-113905600D01*
X87523600Y-113905600D02*
X92885600Y-108543600D01*
X92885600Y-108543600D02*
X101239200Y-108543600D01*
X101239200Y-108543600D02*
X106435200Y-103347600D01*
X106435200Y-103347600D02*
X106435200Y-102426000D01*
X68300800Y-69786500D02*
X69001400Y-70487100D01*
X69001400Y-70487100D02*
X79568400Y-70487100D01*
X67310000Y-69786500D02*
X68300800Y-69786500D01*
X107476000Y-102426000D02*
X106435200Y-102426000D01*
X65760800Y-77406500D02*
X69997900Y-73169400D01*
X69997900Y-73169400D02*
X79192300Y-73169400D01*
X79192300Y-73169400D02*
X85432700Y-66929000D01*
X64770000Y-77406500D02*
X65760800Y-77406500D01*
X86423500Y-66929000D02*
X85432700Y-66929000D01*
X103895200Y-102426000D02*
X99512300Y-98043100D01*
X99512300Y-98043100D02*
X97024400Y-98043100D01*
X104936000Y-102426000D02*
X103895200Y-102426000D01*
X114236000Y-92202000D02*
X111252000Y-92202000D01*
X111252000Y-92202000D02*
X109511100Y-90461100D01*
X109511100Y-90461100D02*
X104939100Y-90461100D01*
X104939100Y-90461100D02*
X104117000Y-89639000D01*
X130968000Y-92202000D02*
X114236000Y-92202000D01*
X130968000Y-92202000D02*
X145381000Y-92202000D01*
X81697500Y-106046800D02*
X81752600Y-106046800D01*
X81752600Y-106046800D02*
X90451000Y-97348400D01*
X90451000Y-97348400D02*
X113128800Y-97348400D01*
X113128800Y-97348400D02*
X113195200Y-97282000D01*
X114236000Y-97282000D02*
X113195200Y-97282000D01*
X106705200Y-51054000D02*
X105460100Y-49808900D01*
X105460100Y-49808900D02*
X91835600Y-49808900D01*
X91835600Y-49808900D02*
X87644800Y-45618100D01*
X87644800Y-45618100D02*
X67083200Y-45618100D01*
X67083200Y-45618100D02*
X67003800Y-45697500D01*
X67003800Y-45697500D02*
X58969000Y-45697500D01*
X58969000Y-45697500D02*
X57912000Y-44640500D01*
X107696000Y-51054000D02*
X106705200Y-51054000D01*
X130968000Y-97282000D02*
X114236000Y-97282000D01*
X130968000Y-97282000D02*
X145381000Y-97282000D01*
X85403700Y-107997600D02*
X101085600Y-107997600D01*
X85403700Y-107997600D02*
X85237000Y-107830900D01*
X85237000Y-107830900D02*
X79306600Y-107830900D01*
X79306600Y-107830900D02*
X78298500Y-108839000D01*
X36322000Y-128690200D02*
X35246800Y-127615000D01*
X35246800Y-127615000D02*
X35246800Y-126784000D01*
X35246800Y-126784000D02*
X36199800Y-125831000D01*
X36199800Y-125831000D02*
X41145300Y-125831000D01*
X41145300Y-125831000D02*
X46423200Y-120553100D01*
X46423200Y-120553100D02*
X46423200Y-119861200D01*
X46423200Y-119861200D02*
X52314500Y-113969900D01*
X52314500Y-113969900D02*
X80676300Y-113969900D01*
X80676300Y-113969900D02*
X85403700Y-109242500D01*
X85403700Y-109242500D02*
X85403700Y-107997600D01*
X36322000Y-129731000D02*
X36322000Y-128690200D01*
X77307700Y-108839000D02*
X78298500Y-108839000D01*
X130968000Y-137922000D02*
X114236000Y-137922000D01*
X130968000Y-137922000D02*
X145381000Y-137922000D01*
X106705200Y-78994000D02*
X94693400Y-78994000D01*
X94693400Y-78994000D02*
X93425100Y-77725700D01*
X93425100Y-77725700D02*
X91759600Y-77725700D01*
X91759600Y-77725700D02*
X90929900Y-78555400D01*
X90929900Y-78555400D02*
X80503500Y-78555400D01*
X107696000Y-78994000D02*
X106705200Y-78994000D01*
X76555800Y-120079000D02*
X78769200Y-122292400D01*
X78769200Y-122292400D02*
X105185600Y-122292400D01*
X105185600Y-122292400D02*
X113195200Y-130302000D01*
X75565000Y-120079000D02*
X76555800Y-120079000D01*
X114236000Y-130302000D02*
X113195200Y-130302000D01*
X130968000Y-130302000D02*
X114236000Y-130302000D01*
X130968000Y-130302000D02*
X145381000Y-130302000D01*
X74015800Y-120079000D02*
X75030200Y-119064600D01*
X75030200Y-119064600D02*
X91123500Y-119064600D01*
X91123500Y-119064600D02*
X91372600Y-119313700D01*
X91372600Y-119313700D02*
X104746900Y-119313700D01*
X104746900Y-119313700D02*
X113195200Y-127762000D01*
X87414300Y-72009000D02*
X88114900Y-72709600D01*
X88114900Y-72709600D02*
X92654300Y-72709600D01*
X92654300Y-72709600D02*
X96398700Y-76454000D01*
X96398700Y-76454000D02*
X106705200Y-76454000D01*
X107696000Y-76454000D02*
X106705200Y-76454000D01*
X86423500Y-72009000D02*
X87414300Y-72009000D01*
X73025000Y-120079000D02*
X74015800Y-120079000D01*
X114236000Y-127762000D02*
X113195200Y-127762000D01*
X130968000Y-127762000D02*
X114236000Y-127762000D01*
X130968000Y-127762000D02*
X145381000Y-127762000D01*
X71475800Y-120079000D02*
X72744500Y-118810300D01*
X72744500Y-118810300D02*
X91234000Y-118810300D01*
X91234000Y-118810300D02*
X91379800Y-118956100D01*
X91379800Y-118956100D02*
X93764800Y-118956100D01*
X93764800Y-118956100D02*
X93898000Y-118822900D01*
X93898000Y-118822900D02*
X106796100Y-118822900D01*
X106796100Y-118822900D02*
X113195200Y-125222000D01*
X106705200Y-73914000D02*
X94895900Y-73914000D01*
X94895900Y-73914000D02*
X93425200Y-72443300D01*
X93425200Y-72443300D02*
X91044000Y-72443300D01*
X91044000Y-72443300D02*
X89608300Y-71007600D01*
X89608300Y-71007600D02*
X86021600Y-71007600D01*
X86021600Y-71007600D02*
X85430700Y-71598500D01*
X85430700Y-71598500D02*
X85430700Y-72565400D01*
X85430700Y-72565400D02*
X86423500Y-73558200D01*
X70485000Y-120079000D02*
X71475800Y-120079000D01*
X114236000Y-125222000D02*
X113195200Y-125222000D01*
X130968000Y-125222000D02*
X114236000Y-125222000D01*
X107696000Y-73914000D02*
X106705200Y-73914000D01*
X86423500Y-74549000D02*
X86423500Y-73558200D01*
X130968000Y-125222000D02*
X145381000Y-125222000D01*
X68935800Y-120079000D02*
X70458800Y-118556000D01*
X70458800Y-118556000D02*
X91339300Y-118556000D01*
X91339300Y-118556000D02*
X91412200Y-118628900D01*
X91412200Y-118628900D02*
X92593100Y-118628900D01*
X92593100Y-118628900D02*
X92773000Y-118449000D01*
X113195200Y-122682000D02*
X108836400Y-118323200D01*
X108836400Y-118323200D02*
X92898800Y-118323200D01*
X92898800Y-118323200D02*
X92773000Y-118449000D01*
X67945000Y-120079000D02*
X68935800Y-120079000D01*
X107696000Y-71374000D02*
X106705200Y-71374000D01*
X86423500Y-77089000D02*
X86423500Y-76098200D01*
X86423500Y-76098200D02*
X85135900Y-74810600D01*
X85135900Y-74810600D02*
X85135900Y-71515100D01*
X85135900Y-71515100D02*
X86185000Y-70466000D01*
X86185000Y-70466000D02*
X89267900Y-70466000D01*
X89267900Y-70466000D02*
X89350800Y-70383100D01*
X89350800Y-70383100D02*
X105714300Y-70383100D01*
X105714300Y-70383100D02*
X106705200Y-71374000D01*
X114236000Y-122682000D02*
X113195200Y-122682000D01*
X130968000Y-122682000D02*
X114236000Y-122682000D01*
X130968000Y-122682000D02*
X145381000Y-122682000D01*
X66395800Y-120079000D02*
X68369100Y-118105700D01*
X68369100Y-118105700D02*
X91672000Y-118105700D01*
X113195200Y-120142000D02*
X111011300Y-117958100D01*
X111011300Y-117958100D02*
X91819600Y-117958100D01*
X91819600Y-117958100D02*
X91672000Y-118105700D01*
X65405000Y-120079000D02*
X66395800Y-120079000D01*
X86423500Y-79629000D02*
X90216000Y-79629000D01*
X90216000Y-79629000D02*
X91864900Y-77980100D01*
X91864900Y-77980100D02*
X93319800Y-77980100D01*
X93319800Y-77980100D02*
X94958500Y-79618800D01*
X94958500Y-79618800D02*
X106496800Y-79618800D01*
X114236000Y-120142000D02*
X113195200Y-120142000D01*
X130968000Y-120142000D02*
X114236000Y-120142000D01*
X130968000Y-120142000D02*
X145381000Y-120142000D01*
X62865000Y-120079000D02*
X62865000Y-118514500D01*
X62865000Y-118514500D02*
X66196200Y-115183300D01*
X66196200Y-115183300D02*
X70505300Y-115183300D01*
X70505300Y-115183300D02*
X73115100Y-117793100D01*
X73115100Y-117793100D02*
X85217600Y-117793100D01*
X85217600Y-117793100D02*
X85408700Y-117602000D01*
X85408700Y-117602000D02*
X113195200Y-117602000D01*
X114236000Y-117602000D02*
X113195200Y-117602000D01*
X130968000Y-117602000D02*
X114236000Y-117602000D01*
X107696000Y-66294000D02*
X106705200Y-66294000D01*
X71183500Y-77089000D02*
X76926000Y-77089000D01*
X76926000Y-77089000D02*
X85536900Y-68478100D01*
X85536900Y-68478100D02*
X89896800Y-68478100D01*
X89896800Y-68478100D02*
X91497900Y-70079200D01*
X91497900Y-70079200D02*
X102920000Y-70079200D01*
X102920000Y-70079200D02*
X106705200Y-66294000D01*
X130968000Y-117602000D02*
X145381000Y-117602000D01*
X114236000Y-115062000D02*
X113195200Y-115062000D01*
X113195200Y-115062000D02*
X111543800Y-116713400D01*
X111543800Y-116713400D02*
X85810800Y-116713400D01*
X85810800Y-116713400D02*
X85037200Y-117487000D01*
X85037200Y-117487000D02*
X80062900Y-117487000D01*
X80062900Y-117487000D02*
X77504800Y-114928900D01*
X77504800Y-114928900D02*
X66091000Y-114928900D01*
X66091000Y-114928900D02*
X61315800Y-119704100D01*
X61315800Y-119704100D02*
X61315800Y-120079000D01*
X130968000Y-115062000D02*
X114236000Y-115062000D01*
X60325000Y-120079000D02*
X61315800Y-120079000D01*
X72174300Y-74549000D02*
X72174300Y-74548900D01*
X72174300Y-74548900D02*
X79106500Y-74548900D01*
X79106500Y-74548900D02*
X85454100Y-68201300D01*
X85454100Y-68201300D02*
X90422100Y-68201300D01*
X90422100Y-68201300D02*
X92045600Y-69824800D01*
X92045600Y-69824800D02*
X100634400Y-69824800D01*
X100634400Y-69824800D02*
X106705200Y-63754000D01*
X71183500Y-74549000D02*
X72174300Y-74549000D01*
X107696000Y-63754000D02*
X106705200Y-63754000D01*
X130968000Y-115062000D02*
X145381000Y-115062000D01*
X75015300Y-102172000D02*
X83836800Y-93350500D01*
X83836800Y-93350500D02*
X104179300Y-93350500D01*
X104179300Y-93350500D02*
X105727400Y-91802400D01*
X74104500Y-102172000D02*
X75015300Y-102172000D01*
X130968000Y-112522000D02*
X145381000Y-112522000D01*
X114236000Y-107442000D02*
X113195200Y-107442000D01*
X84391500Y-116459000D02*
X104178200Y-116459000D01*
X104178200Y-116459000D02*
X113195200Y-107442000D01*
X130968000Y-107442000D02*
X114236000Y-107442000D01*
X130968000Y-107442000D02*
X145381000Y-107442000D01*
X114236000Y-104902000D02*
X113195200Y-104902000D01*
X113195200Y-104902000D02*
X102759300Y-115337900D01*
X102759300Y-115337900D02*
X89488500Y-115337900D01*
X130968000Y-104902000D02*
X114236000Y-104902000D01*
X130968000Y-104902000D02*
X145381000Y-104902000D01*
X80849600Y-116459000D02*
X82912200Y-114396400D01*
X82912200Y-114396400D02*
X101160800Y-114396400D01*
X101160800Y-114396400D02*
X113195200Y-102362000D01*
X114236000Y-102362000D02*
X113195200Y-102362000D01*
X130968000Y-102362000D02*
X114236000Y-102362000D01*
X130968000Y-102362000D02*
X145381000Y-102362000D01*
X72775000Y-108839000D02*
X71742600Y-107806600D01*
X71742600Y-107806600D02*
X66150500Y-107806600D01*
X66150500Y-107806600D02*
X61570300Y-112386800D01*
X61570300Y-112386800D02*
X53537900Y-112386800D01*
X53537900Y-112386800D02*
X46137900Y-119786800D01*
X46137900Y-119786800D02*
X46137900Y-120445900D01*
X46137900Y-120445900D02*
X41932800Y-124651000D01*
X41932800Y-124651000D02*
X37362800Y-124651000D01*
X107921000Y-99822000D02*
X106168900Y-101574100D01*
X106168900Y-101574100D02*
X106168900Y-102735200D01*
X106168900Y-102735200D02*
X101605500Y-107298600D01*
X101605500Y-107298600D02*
X76297000Y-107298600D01*
X76297000Y-107298600D02*
X74756600Y-108839000D01*
X114236000Y-99822000D02*
X107921000Y-99822000D01*
X73765800Y-108839000D02*
X74756600Y-108839000D01*
X130968000Y-99822000D02*
X114236000Y-99822000D01*
X36322000Y-124651000D02*
X37362800Y-124651000D01*
X73765800Y-108839000D02*
X72775000Y-108839000D01*
X130968000Y-99822000D02*
X145381000Y-99822000D01*
X54610000Y-77406500D02*
X55600800Y-77406500D01*
X107696000Y-81534000D02*
X106705200Y-81534000D01*
X106705200Y-81534000D02*
X105584900Y-82654300D01*
X105584900Y-82654300D02*
X60848600Y-82654300D01*
X60848600Y-82654300D02*
X55600800Y-77406500D01*
X52070000Y-77406500D02*
X54610000Y-77406500D01*
X130968000Y-46482000D02*
X145381000Y-46482000D01*
X114236000Y-46482000D02*
X130968000Y-46482000D01*
X113195200Y-49022000D02*
X112835700Y-49022000D01*
X112835700Y-49022000D02*
X109782800Y-52074900D01*
X109782800Y-52074900D02*
X91857500Y-52074900D01*
X91857500Y-52074900D02*
X87382400Y-47599800D01*
X87382400Y-47599800D02*
X73165100Y-47599800D01*
X73165100Y-47599800D02*
X72174300Y-46609000D01*
X71183500Y-46609000D02*
X72174300Y-46609000D01*
X114236000Y-49022000D02*
X113195200Y-49022000D01*
X130968000Y-49022000D02*
X114236000Y-49022000D01*
X130968000Y-49022000D02*
X145381000Y-49022000D01*
X80628700Y-85222300D02*
X105313500Y-85222300D01*
X105313500Y-85222300D02*
X106705200Y-86614000D01*
X54695300Y-86932000D02*
X55915200Y-88151900D01*
X55915200Y-88151900D02*
X56746200Y-88151900D01*
X56746200Y-88151900D02*
X57774400Y-87123700D01*
X57774400Y-87123700D02*
X57774400Y-86392900D01*
X57774400Y-86392900D02*
X58945000Y-85222300D01*
X58945000Y-85222300D02*
X80628700Y-85222300D01*
X53784500Y-86932000D02*
X54695300Y-86932000D01*
X107696000Y-86614000D02*
X106705200Y-86614000D01*
X114236000Y-51562000D02*
X113195200Y-51562000D01*
X113195200Y-51562000D02*
X112427600Y-52329600D01*
X112427600Y-52329600D02*
X88054900Y-52329600D01*
X88054900Y-52329600D02*
X87414300Y-51689000D01*
X130968000Y-51562000D02*
X114236000Y-51562000D01*
X86423500Y-51689000D02*
X87414300Y-51689000D01*
X130968000Y-51562000D02*
X145381000Y-51562000D01*
X51244500Y-102172000D02*
X52155300Y-102172000D01*
X107696000Y-89154000D02*
X106705200Y-89154000D01*
X106705200Y-89154000D02*
X106383700Y-88832500D01*
X106383700Y-88832500D02*
X97825100Y-88832500D01*
X97825100Y-88832500D02*
X93969900Y-92687700D01*
X93969900Y-92687700D02*
X71764600Y-92687700D01*
X71764600Y-92687700D02*
X70891000Y-91814100D01*
X70891000Y-91814100D02*
X62513200Y-91814100D01*
X62513200Y-91814100D02*
X52155300Y-102172000D01*
X71183500Y-49149000D02*
X72174300Y-49149000D01*
X114236000Y-54102000D02*
X113195200Y-54102000D01*
X113195200Y-54102000D02*
X111677500Y-52584300D01*
X111677500Y-52584300D02*
X91560700Y-52584300D01*
X91560700Y-52584300D02*
X91373400Y-52771600D01*
X91373400Y-52771600D02*
X75796900Y-52771600D01*
X75796900Y-52771600D02*
X72174300Y-49149000D01*
X130968000Y-54102000D02*
X114236000Y-54102000D01*
X130968000Y-54102000D02*
X145381000Y-54102000D01*
X92456000Y-91694000D02*
X91465200Y-91694000D01*
X61404500Y-86932000D02*
X62315300Y-86932000D01*
X91465200Y-91694000D02*
X88260400Y-88489200D01*
X88260400Y-88489200D02*
X63872500Y-88489200D01*
X63872500Y-88489200D02*
X62315300Y-86932000D01*
X114236000Y-56642000D02*
X113195200Y-56642000D01*
X113195200Y-56642000D02*
X113195200Y-57162400D01*
X113195200Y-57162400D02*
X110652700Y-59704900D01*
X110652700Y-59704900D02*
X87810200Y-59704900D01*
X87810200Y-59704900D02*
X87414300Y-59309000D01*
X130968000Y-56642000D02*
X114236000Y-56642000D01*
X86423500Y-59309000D02*
X87414300Y-59309000D01*
X130968000Y-56642000D02*
X145381000Y-56642000D01*
X66484500Y-86932000D02*
X67395300Y-86932000D01*
X92456000Y-89154000D02*
X91465200Y-89154000D01*
X91465200Y-89154000D02*
X90546000Y-88234800D01*
X90546000Y-88234800D02*
X68698100Y-88234800D01*
X68698100Y-88234800D02*
X67395300Y-86932000D01*
X113195200Y-59182000D02*
X112366600Y-60010600D01*
X112366600Y-60010600D02*
X97741700Y-60010600D01*
X97741700Y-60010600D02*
X92979400Y-64772900D01*
X92979400Y-64772900D02*
X88442300Y-64772900D01*
X88442300Y-64772900D02*
X88058400Y-64389000D01*
X88058400Y-64389000D02*
X87414300Y-64389000D01*
X114236000Y-59182000D02*
X113195200Y-59182000D01*
X130968000Y-59182000D02*
X114236000Y-59182000D01*
X86423500Y-64389000D02*
X87414300Y-64389000D01*
X130968000Y-59182000D02*
X145381000Y-59182000D01*
X114236000Y-61722000D02*
X113195200Y-61722000D01*
X113195200Y-61722000D02*
X112711700Y-62205500D01*
X112711700Y-62205500D02*
X106983600Y-62205500D01*
X106983600Y-62205500D02*
X104054300Y-65134800D01*
X104054300Y-65134800D02*
X88110100Y-65134800D01*
X130968000Y-61722000D02*
X114236000Y-61722000D01*
X59775300Y-86932000D02*
X59775300Y-86572400D01*
X59775300Y-86572400D02*
X60871000Y-85476700D01*
X60871000Y-85476700D02*
X79212300Y-85476700D01*
X79212300Y-85476700D02*
X79466600Y-85731000D01*
X79466600Y-85731000D02*
X90582200Y-85731000D01*
X90582200Y-85731000D02*
X91465200Y-86614000D01*
X130968000Y-61722000D02*
X145381000Y-61722000D01*
X92456000Y-86614000D02*
X91465200Y-86614000D01*
X58864500Y-86932000D02*
X59775300Y-86932000D01*
X110606700Y-59046800D02*
X108963900Y-57404000D01*
X108963900Y-57404000D02*
X90589300Y-57404000D01*
X90589300Y-57404000D02*
X87414300Y-54229000D01*
X92456000Y-84074000D02*
X59733700Y-84074000D01*
X59733700Y-84074000D02*
X57235300Y-86572400D01*
X57235300Y-86572400D02*
X57235300Y-86932000D01*
X86423500Y-54229000D02*
X87414300Y-54229000D01*
X56324500Y-86932000D02*
X57235300Y-86932000D01*
X130968000Y-64262000D02*
X114236000Y-64262000D01*
X130968000Y-64262000D02*
X145381000Y-64262000D01*
X73580600Y-82154700D02*
X62775200Y-82154700D01*
X91465200Y-81534000D02*
X90844500Y-82154700D01*
X90844500Y-82154700D02*
X73580600Y-82154700D01*
X114236000Y-67842800D02*
X112736900Y-69341900D01*
X112736900Y-69341900D02*
X112736900Y-70683900D01*
X112736900Y-70683900D02*
X108311200Y-75109600D01*
X108311200Y-75109600D02*
X97751300Y-75109600D01*
X97751300Y-75109600D02*
X97388700Y-75472200D01*
X130968000Y-66802000D02*
X129927200Y-66802000D01*
X114236000Y-67322400D02*
X129406800Y-67322400D01*
X129406800Y-67322400D02*
X129927200Y-66802000D01*
X114236000Y-67322400D02*
X114236000Y-67842800D01*
X114236000Y-66802000D02*
X114236000Y-67322400D01*
X92456000Y-81534000D02*
X91465200Y-81534000D01*
X130968000Y-66802000D02*
X145381000Y-66802000D01*
X114236000Y-69533000D02*
X114236000Y-69671400D01*
X114236000Y-69671400D02*
X108543400Y-75364000D01*
X108543400Y-75364000D02*
X101655100Y-75364000D01*
X101655100Y-75364000D02*
X101056000Y-75963100D01*
X101056000Y-75963100D02*
X96622500Y-75963100D01*
X130968000Y-69342000D02*
X129927200Y-69342000D01*
X114236000Y-69437500D02*
X129831700Y-69437500D01*
X129831700Y-69437500D02*
X129927200Y-69342000D01*
X114236000Y-69437500D02*
X114236000Y-69533000D01*
X114236000Y-69342000D02*
X114236000Y-69437500D01*
X57235300Y-102172000D02*
X67090500Y-92316800D01*
X67090500Y-92316800D02*
X70631800Y-92316800D01*
X73076500Y-80620200D02*
X89839000Y-80620200D01*
X89839000Y-80620200D02*
X91465200Y-78994000D01*
X56324500Y-102172000D02*
X57235300Y-102172000D01*
X92456000Y-78994000D02*
X91465200Y-78994000D01*
X130968000Y-69342000D02*
X145381000Y-69342000D01*
X113195200Y-71882000D02*
X113195200Y-72402400D01*
X113195200Y-72402400D02*
X108140000Y-77457600D01*
X108140000Y-77457600D02*
X94450400Y-77457600D01*
X94450400Y-77457600D02*
X93446800Y-76454000D01*
X92456000Y-76454000D02*
X93446800Y-76454000D01*
X114236000Y-71882000D02*
X113195200Y-71882000D01*
X130968000Y-71882000D02*
X114236000Y-71882000D01*
X71183500Y-56769000D02*
X72174300Y-56769000D01*
X88298400Y-60478200D02*
X88190500Y-60370300D01*
X88190500Y-60370300D02*
X75775600Y-60370300D01*
X75775600Y-60370300D02*
X72174300Y-56769000D01*
X145381000Y-71882000D02*
X130968000Y-71882000D01*
X91418200Y-76834500D02*
X90172700Y-78080000D01*
X90172700Y-78080000D02*
X80722200Y-78080000D01*
X80722200Y-78080000D02*
X80706800Y-78064600D01*
X80706800Y-78064600D02*
X80300300Y-78064600D01*
X80300300Y-78064600D02*
X80284900Y-78080000D01*
X80284900Y-78080000D02*
X70122100Y-78080000D01*
X70122100Y-78080000D02*
X68425000Y-76382900D01*
X113195200Y-74422000D02*
X109905200Y-77712000D01*
X109905200Y-77712000D02*
X93771000Y-77712000D01*
X93771000Y-77712000D02*
X93530400Y-77471400D01*
X93530400Y-77471400D02*
X92055100Y-77471400D01*
X92055100Y-77471400D02*
X91418200Y-76834500D01*
X91418200Y-76834500D02*
X91418200Y-75942600D01*
X91418200Y-75942600D02*
X92456000Y-74904800D01*
X92456000Y-73914000D02*
X92456000Y-74904800D01*
X114236000Y-74422000D02*
X113195200Y-74422000D01*
X130968000Y-74422000D02*
X114236000Y-74422000D01*
X130968000Y-74422000D02*
X145381000Y-74422000D01*
X110325900Y-72400500D02*
X101891600Y-72400500D01*
X101891600Y-72400500D02*
X100865100Y-71374000D01*
X100865100Y-71374000D02*
X92456000Y-71374000D01*
X88743200Y-63228900D02*
X88357300Y-62843000D01*
X88357300Y-62843000D02*
X73168300Y-62843000D01*
X73168300Y-62843000D02*
X72174300Y-61849000D01*
X71183500Y-61849000D02*
X72174300Y-61849000D01*
X130968000Y-76962000D02*
X114236000Y-76962000D01*
X130968000Y-76962000D02*
X145381000Y-76962000D01*
X113195200Y-79502000D02*
X111696300Y-78003100D01*
X111696300Y-78003100D02*
X98374500Y-78003100D01*
X98374500Y-78003100D02*
X98174700Y-78202900D01*
X114236000Y-79502000D02*
X113195200Y-79502000D01*
X130968000Y-79502000D02*
X114236000Y-79502000D01*
X92456000Y-68834000D02*
X91465200Y-68834000D01*
X71183500Y-64389000D02*
X71183500Y-65379800D01*
X71183500Y-65379800D02*
X70191500Y-66371800D01*
X70191500Y-66371800D02*
X70191500Y-67353400D01*
X70191500Y-67353400D02*
X70772800Y-67934700D01*
X70772800Y-67934700D02*
X82323900Y-67934700D01*
X82323900Y-67934700D02*
X84345200Y-65913400D01*
X84345200Y-65913400D02*
X88544600Y-65913400D01*
X88544600Y-65913400D02*
X91465200Y-68834000D01*
X130968000Y-79502000D02*
X145381000Y-79502000D01*
X114236000Y-82042000D02*
X113195200Y-82042000D01*
X113195200Y-82042000D02*
X111449100Y-80295900D01*
X111449100Y-80295900D02*
X98531300Y-80295900D01*
X130968000Y-82042000D02*
X114236000Y-82042000D01*
X91465200Y-66294000D02*
X90830300Y-65659100D01*
X90830300Y-65659100D02*
X73444200Y-65659100D01*
X73444200Y-65659100D02*
X72174300Y-66929000D01*
X71183500Y-66929000D02*
X72174300Y-66929000D01*
X92456000Y-66294000D02*
X91465200Y-66294000D01*
X130968000Y-82042000D02*
X145381000Y-82042000D01*
X98525000Y-89344000D02*
X98751500Y-89117500D01*
X98751500Y-89117500D02*
X105426700Y-89117500D01*
X105426700Y-89117500D02*
X106461400Y-90152200D01*
X106461400Y-90152200D02*
X108150000Y-90152200D01*
X108150000Y-90152200D02*
X108967100Y-89335100D01*
X108967100Y-89335100D02*
X108967100Y-87628500D01*
X108967100Y-87628500D02*
X112013600Y-84582000D01*
X112013600Y-84582000D02*
X114236000Y-84582000D01*
X71183500Y-69469000D02*
X71183500Y-68478200D01*
X92456000Y-63754000D02*
X88235800Y-63754000D01*
X88235800Y-63754000D02*
X87838900Y-63357100D01*
X87838900Y-63357100D02*
X70809300Y-63357100D01*
X70809300Y-63357100D02*
X69903600Y-64262800D01*
X69903600Y-64262800D02*
X69903600Y-67429300D01*
X69903600Y-67429300D02*
X70952500Y-68478200D01*
X70952500Y-68478200D02*
X71183500Y-68478200D01*
X98525000Y-89344000D02*
X94926900Y-92942100D01*
X94926900Y-92942100D02*
X81705200Y-92942100D01*
X81705200Y-92942100D02*
X72475300Y-102172000D01*
X71564500Y-102172000D02*
X72475300Y-102172000D01*
X130968000Y-84582000D02*
X114236000Y-84582000D01*
X71564500Y-102172000D02*
X71545000Y-102172000D01*
X71109100Y-102172000D02*
X70653700Y-102172000D01*
X71109100Y-102172000D02*
X71545000Y-102172000D01*
X45085000Y-120079000D02*
X54881600Y-110282400D01*
X54881600Y-110282400D02*
X56049500Y-110282400D01*
X56049500Y-110282400D02*
X62654200Y-103677700D01*
X62654200Y-103677700D02*
X69148000Y-103677700D01*
X69148000Y-103677700D02*
X70653700Y-102172000D01*
X130968000Y-84582000D02*
X145381000Y-84582000D01*
X56159200Y-77406500D02*
X55148300Y-76395600D01*
X55148300Y-76395600D02*
X51144600Y-76395600D01*
X51144600Y-76395600D02*
X51074100Y-76466100D01*
X51074100Y-76466100D02*
X51074100Y-78311500D01*
X51074100Y-78311500D02*
X52309900Y-79547300D01*
X52309900Y-79547300D02*
X52309900Y-87046900D01*
X52309900Y-87046900D02*
X53669200Y-88406200D01*
X53669200Y-88406200D02*
X58963300Y-88406200D01*
X58963300Y-88406200D02*
X60493600Y-86875900D01*
X60493600Y-86875900D02*
X60493600Y-86213800D01*
X60493600Y-86213800D02*
X60966300Y-85741100D01*
X60966300Y-85741100D02*
X66922800Y-85741100D01*
X66922800Y-85741100D02*
X68113700Y-86932000D01*
X57150000Y-77406500D02*
X56159200Y-77406500D01*
X69024500Y-86932000D02*
X68113700Y-86932000D01*
X64770000Y-69786500D02*
X64770000Y-70777300D01*
X59690000Y-76911100D02*
X59690000Y-75857300D01*
X59690000Y-75857300D02*
X64770000Y-70777300D01*
X59690000Y-76911100D02*
X58636200Y-76911100D01*
X58636200Y-76911100D02*
X58140800Y-77406500D01*
X57150000Y-77406500D02*
X58140800Y-77406500D01*
X59690000Y-77406500D02*
X59690000Y-76911100D01*
X98044000Y-141351000D02*
X94778600Y-144616400D01*
X94778600Y-144616400D02*
X59363100Y-144616400D01*
X59363100Y-144616400D02*
X57288000Y-142541300D01*
X57288000Y-142541300D02*
X55483300Y-142541300D01*
X55483300Y-142541300D02*
X54102000Y-141160000D01*
X50165000Y-135319000D02*
X50165000Y-137477000D01*
X50165000Y-137477000D02*
X46482000Y-141160000D01*
X60325000Y-135319000D02*
X59334200Y-135319000D01*
X59334200Y-135319000D02*
X58343400Y-136309800D01*
X58343400Y-136309800D02*
X56412200Y-136309800D01*
X56412200Y-136309800D02*
X51562000Y-141160000D01*
X55245000Y-135319000D02*
X54254200Y-135319000D01*
X54254200Y-135319000D02*
X54254200Y-135927800D01*
X54254200Y-135927800D02*
X49022000Y-141160000D01*
X70485000Y-135319000D02*
X71475800Y-135319000D01*
X71475800Y-135319000D02*
X77190800Y-141034000D01*
X77190800Y-141034000D02*
X77914500Y-141034000D01*
X66395800Y-135319000D02*
X67386600Y-136309800D01*
X67386600Y-136309800D02*
X70650300Y-136309800D01*
X70650300Y-136309800D02*
X75374500Y-141034000D01*
X65405000Y-135319000D02*
X66395800Y-135319000D01*
X66682100Y-116459000D02*
X66682100Y-117449800D01*
X109904000Y-132969000D02*
X109213200Y-132969000D01*
X109213200Y-132969000D02*
X99037900Y-122793700D01*
X99037900Y-122793700D02*
X66715000Y-122793700D01*
X66715000Y-122793700D02*
X64382400Y-120461100D01*
X64382400Y-120461100D02*
X64382400Y-119646900D01*
X64382400Y-119646900D02*
X66579500Y-117449800D01*
X66579500Y-117449800D02*
X66682100Y-117449800D01*
X37362800Y-127191000D02*
X37393700Y-127160100D01*
X37393700Y-127160100D02*
X82040900Y-127160100D01*
X36322000Y-127191000D02*
X37362800Y-127191000D01*
X109213200Y-135572000D02*
X96747500Y-123106300D01*
X96747500Y-123106300D02*
X66637500Y-123106300D01*
X66637500Y-123106300D02*
X64125000Y-120593800D01*
X64125000Y-120593800D02*
X64125000Y-117614200D01*
X64125000Y-117614200D02*
X66285600Y-115453600D01*
X66285600Y-115453600D02*
X68227700Y-115453600D01*
X68227700Y-115453600D02*
X69233100Y-116459000D01*
X70223900Y-116459000D02*
X69233100Y-116459000D01*
X109904000Y-135572000D02*
X109213200Y-135572000D01*
M02*
