M48
; DRILL file {KiCad (5.1.10)-1} date 08/14/21 13:07:48
; FORMAT={-:-/ absolute / inch / decimal}
; #@! TF.CreationDate,2021-08-14T13:07:48-07:00
; #@! TF.GenerationSoftware,Kicad,Pcbnew,(5.1.10)-1
FMAT,2
INCH
T1C0.0118
T2C0.0236
T3C0.0295
T4C0.0315
T5C0.0354
T6C0.0394
T7C0.0433
%
G90
G05
T1
X2.259Y-4.5337
X2.4715Y-3.2344
X2.6939Y-3.0072
X2.6975Y-3.5737
X2.7808Y-3.6345
X2.877Y-3.174
X2.8969Y-3.2344
X3.1326Y-2.7751
X3.1694Y-3.0927
X3.1744Y-3.3552
X3.2164Y-4.1751
X3.23Y-5.0063
X3.445Y-4.4845
X3.4689Y-2.5644
X3.4763Y-2.381
X3.4938Y-2.4893
X3.5232Y-4.5409
X3.6091Y-4.6498
X3.6525Y-4.6633
X3.6569Y-4.2734
X3.6968Y-4.6781
X3.804Y-2.9907
X3.8199Y-3.86
X3.8342Y-2.9713
X3.8651Y-3.0789
X3.8789Y-3.5175
X3.8792Y-3.1613
X3.9797Y-4.2519
X4.0991Y-3.5291
X4.1625Y-3.6143
X4.1928Y-3.1346
X4.2489Y-3.93
X4.278Y-3.8133
X4.3435Y-2.8504
X4.3546Y-2.3247
T2
X1.965Y-2.1788
X1.965Y-2.2575
T3
X2.495Y-2.5725
X2.545Y-2.6225
X2.595Y-2.5725
T4
X1.575Y-4.7275
X1.575Y-5.3275
X1.675Y-4.7275
X1.675Y-5.3275
X1.775Y-4.7275
X1.775Y-5.3275
X1.875Y-4.7275
X1.875Y-5.3275
X1.975Y-4.7275
X1.975Y-5.3275
X2.0391Y-2.63
X2.05Y-2.7475
X2.05Y-3.0475
X2.0675Y-4.285
X2.0675Y-4.585
X2.075Y-4.7275
X2.075Y-5.3275
X2.1375Y-2.63
X2.15Y-2.7475
X2.15Y-3.0475
X2.175Y-4.7275
X2.175Y-5.3275
X2.2069Y-4.285
X2.2069Y-4.585
X2.2275Y-2.53
X2.25Y-2.7475
X2.25Y-3.0475
X2.275Y-4.7275
X2.275Y-5.3275
X2.28Y-1.7575
X2.28Y-2.3575
X2.3259Y-2.53
X2.3464Y-4.285
X2.3464Y-4.585
X2.35Y-2.7475
X2.35Y-3.0475
X2.375Y-4.7275
X2.375Y-5.3275
X2.45Y-2.7475
X2.45Y-3.0475
X2.475Y-4.7275
X2.475Y-5.3275
X2.4858Y-4.285
X2.4858Y-4.585
X2.55Y-2.7475
X2.55Y-3.0475
X2.55Y-5.5525
X2.55Y-5.6509
X2.575Y-4.7275
X2.575Y-5.3275
X2.58Y-1.7575
X2.58Y-2.3575
X2.6253Y-4.285
X2.6253Y-4.585
X2.65Y-2.7475
X2.65Y-3.0475
X2.675Y-4.7275
X2.675Y-5.3275
X2.7647Y-4.285
X2.7647Y-4.585
X2.775Y-4.7275
X2.775Y-5.3275
X2.8025Y-1.835
X2.8025Y-1.935
X2.8025Y-2.035
X2.8025Y-2.135
X2.8025Y-2.235
X2.8025Y-2.335
X2.8025Y-2.435
X2.8025Y-2.535
X2.8025Y-2.635
X2.8025Y-2.735
X2.8025Y-2.835
X2.8025Y-2.935
X2.8025Y-3.035
X2.8025Y-3.135
X2.875Y-4.7275
X2.875Y-5.3275
X2.9042Y-4.285
X2.9042Y-4.585
X2.975Y-4.7275
X2.975Y-5.3275
X3.0436Y-4.285
X3.0436Y-4.585
X3.075Y-4.7275
X3.075Y-5.3275
X3.175Y-4.7275
X3.175Y-5.3275
X3.1831Y-4.285
X3.1831Y-4.585
X3.275Y-4.7275
X3.275Y-5.3275
X3.3091Y-1.69
X3.3225Y-4.285
X3.3225Y-4.585
X3.375Y-4.7275
X3.375Y-5.3275
X3.4025Y-1.835
X3.4025Y-1.935
X3.4025Y-2.035
X3.4025Y-2.135
X3.4025Y-2.235
X3.4025Y-2.335
X3.4025Y-2.435
X3.4025Y-2.535
X3.4025Y-2.635
X3.4025Y-2.735
X3.4025Y-2.835
X3.4025Y-2.935
X3.4025Y-3.035
X3.4025Y-3.135
X3.4075Y-1.69
X3.475Y-4.7275
X3.475Y-5.3275
X3.5225Y-2.3116
X3.5225Y-2.41
X3.61Y-5.2291
X3.61Y-5.3275
X3.64Y-1.71
X3.64Y-1.81
X3.64Y-1.91
X3.64Y-2.01
X3.64Y-2.11
X3.64Y-2.21
X3.64Y-2.31
X3.64Y-2.41
X3.64Y-2.51
X3.64Y-2.61
X3.64Y-2.71
X3.64Y-2.81
X3.64Y-2.91
X3.64Y-3.01
X3.64Y-3.11
X3.64Y-3.21
X3.64Y-3.31
X3.64Y-3.41
X3.64Y-3.51
X3.64Y-3.61
X4.24Y-1.71
X4.24Y-1.81
X4.24Y-1.91
X4.24Y-2.01
X4.24Y-2.11
X4.24Y-2.21
X4.24Y-2.31
X4.24Y-2.41
X4.24Y-2.51
X4.24Y-2.61
X4.24Y-2.71
X4.24Y-2.81
X4.24Y-2.91
X4.24Y-3.01
X4.24Y-3.11
X4.24Y-3.21
X4.24Y-3.31
X4.24Y-3.41
X4.24Y-3.51
X4.24Y-3.61
X4.36Y-3.4366
X4.36Y-3.535
X4.6325Y-3.4266
X4.6325Y-3.525
X5.03Y-3.4266
X5.03Y-3.525
X5.6Y-3.4266
X5.6Y-3.525
T5
X1.695Y-2.165
X1.695Y-2.265
X1.695Y-2.6375
X1.695Y-2.7375
X3.86Y-5.565
X3.86Y-5.665
X4.1825Y-5.565
X4.1825Y-5.665
T6
X1.43Y-4.9075
X1.43Y-5.0075
X1.43Y-5.1075
X1.63Y-5.5575
X1.63Y-5.6575
X1.73Y-5.5575
X1.73Y-5.6575
X1.83Y-5.5575
X1.83Y-5.6575
X1.9175Y-3.4225
X1.9175Y-4.0225
X1.93Y-5.5575
X1.93Y-5.6575
X2.0175Y-3.4225
X2.0175Y-4.0225
X2.03Y-5.5575
X2.03Y-5.6575
X2.1175Y-3.4225
X2.1175Y-4.0225
X2.13Y-5.5575
X2.13Y-5.6575
X2.2175Y-3.4225
X2.2175Y-4.0225
X2.23Y-5.5575
X2.23Y-5.6575
X2.3175Y-3.4225
X2.3175Y-4.0225
X2.4175Y-3.4225
X2.4175Y-4.0225
X2.5175Y-3.4225
X2.5175Y-4.0225
X2.6175Y-3.4225
X2.6175Y-4.0225
X2.7175Y-3.4225
X2.7175Y-4.0225
X2.8175Y-3.4225
X2.8175Y-4.0225
X2.8675Y-5.5525
X2.8675Y-5.6525
X2.9175Y-3.4225
X2.9175Y-4.0225
X2.9675Y-5.5525
X2.9675Y-5.6525
X3.0175Y-3.4225
X3.0175Y-4.0225
X3.0675Y-5.5525
X3.0675Y-5.6525
X3.1175Y-3.4225
X3.1175Y-4.0225
X3.1675Y-5.5525
X3.1675Y-5.6525
X3.2175Y-3.4225
X3.2175Y-4.0225
X3.2675Y-5.5525
X3.2675Y-5.6525
X3.3675Y-5.5525
X3.3675Y-5.6525
X3.4675Y-5.5525
X3.4675Y-5.6525
X3.8329Y-3.7775
X3.9313Y-4.0325
X3.9329Y-3.7775
X4.0313Y-4.0325
X4.0329Y-3.7775
X4.1313Y-4.0325
X4.1329Y-3.7775
X4.2313Y-4.0325
X4.2329Y-3.7775
X4.4975Y-1.83
X4.4975Y-1.93
X4.4975Y-2.03
X4.4975Y-2.13
X4.4975Y-2.23
X4.4975Y-2.33
X4.4975Y-2.43
X4.4975Y-2.53
X4.4975Y-2.63
X4.4975Y-2.73
X4.4975Y-2.83
X4.4975Y-2.93
X4.4975Y-3.03
X4.4975Y-3.13
X4.4975Y-3.23
X4.4975Y-3.33
X4.4975Y-3.43
X4.4975Y-3.53
X4.4975Y-3.63
X4.4975Y-3.73
X4.4975Y-3.83
X4.4975Y-3.93
X4.4975Y-4.03
X4.4975Y-4.13
X4.4975Y-4.23
X4.4975Y-4.33
X4.4975Y-4.43
X4.4975Y-4.53
X4.4975Y-4.63
X4.4975Y-4.73
X4.4975Y-4.83
X4.4975Y-4.93
X4.4975Y-5.03
X4.4975Y-5.13
X4.4975Y-5.23
X4.4975Y-5.33
X4.4975Y-5.43
X4.4975Y-5.53
X4.4975Y-5.63
X4.4975Y-5.73
X5.1562Y-1.83
X5.1562Y-1.93
X5.1562Y-2.03
X5.1562Y-2.13
X5.1562Y-2.23
X5.1562Y-2.33
X5.1562Y-2.43
X5.1562Y-2.53
X5.1562Y-2.63
X5.1562Y-2.73
X5.1562Y-2.83
X5.1562Y-2.93
X5.1562Y-3.03
X5.1562Y-3.13
X5.1562Y-3.23
X5.1562Y-3.33
X5.1562Y-3.43
X5.1562Y-3.53
X5.1562Y-3.63
X5.1562Y-3.73
X5.1562Y-3.83
X5.1562Y-3.93
X5.1562Y-4.03
X5.1562Y-4.13
X5.1562Y-4.23
X5.1562Y-4.33
X5.1562Y-4.43
X5.1562Y-4.53
X5.1562Y-4.63
X5.1562Y-4.73
X5.1562Y-4.83
X5.1562Y-4.93
X5.1562Y-5.03
X5.1562Y-5.13
X5.1562Y-5.23
X5.1562Y-5.33
X5.1562Y-5.43
X5.1562Y-5.53
X5.1562Y-5.63
X5.1562Y-5.73
X5.7237Y-1.83
X5.7237Y-1.93
X5.7237Y-2.03
X5.7237Y-2.13
X5.7237Y-2.23
X5.7237Y-2.33
X5.7237Y-2.43
X5.7237Y-2.53
X5.7237Y-2.63
X5.7237Y-2.73
X5.7237Y-2.83
X5.7237Y-2.93
X5.7237Y-3.03
X5.7237Y-3.13
X5.7237Y-3.23
X5.7237Y-3.33
X5.7237Y-3.43
X5.7237Y-3.53
X5.7237Y-3.63
X5.7237Y-3.73
X5.7237Y-3.83
X5.7237Y-3.93
X5.7237Y-4.03
X5.7237Y-4.13
X5.7237Y-4.23
X5.7237Y-4.33
X5.7237Y-4.43
X5.7237Y-4.53
X5.7237Y-4.63
X5.7237Y-4.73
X5.7237Y-4.83
X5.7237Y-4.93
X5.7237Y-5.03
X5.7237Y-5.13
X5.7237Y-5.23
X5.7237Y-5.33
X5.7237Y-5.43
X5.7237Y-5.53
X5.7237Y-5.63
X5.7237Y-5.73
T7
X1.6458Y-2.8891
X1.6458Y-3.145
X1.823Y-2.8891
X1.823Y-3.145
T6
G00X1.6675Y-1.8575
M15
G01X1.6675Y-1.9363
M16
G05
G00X1.8919Y-1.7788
M15
G01X1.8131Y-1.7788
M16
G05
G00X1.8919Y-2.015
M15
G01X1.8131Y-2.015
M16
G05
T0
M30
